<svg width="20" height="18" viewBox="0 0 20 18" fill="none" xmlns="http://www.w3.org/2000/svg">
<path fill-rule="evenodd" clip-rule="evenodd" d="M0 1.5C0 0.671573 0.639593 0 1.42857 0H18.5714C19.3604 0 20 0.671573 20 1.5C20 2.32843 19.3604 3 18.5714 3H1.42857C0.639593 3 0 2.32843 0 1.5Z" fill="white"/>
<path fill-rule="evenodd" clip-rule="evenodd" d="M0 9C0 8.17157 0.639593 7.5 1.42857 7.5H18.5714C19.3604 7.5 20 8.17157 20 9C20 9.82843 19.3604 10.5 18.5714 10.5H1.42857C0.639593 10.5 0 9.82843 0 9Z" fill="white"/>
<path fill-rule="evenodd" clip-rule="evenodd" d="M0 16.5C0 15.6716 0.639593 15 1.42857 15H18.5714C19.3604 15 20 15.6716 20 16.5C20 17.3284 19.3604 18 18.5714 18H1.42857C0.639593 18 0 17.3284 0 16.5Z" fill="white"/>
</svg>
