<svg width="24" height="24" viewBox="0 0 24 24" fill="none" xmlns="http://www.w3.org/2000/svg">
<path fill-rule="evenodd" clip-rule="evenodd" d="M3 5.33333C3 4.59695 3.57563 4 4.28571 4H19.7143C20.4244 4 21 4.59695 21 5.33333C21 6.06971 20.4244 6.66667 19.7143 6.66667H4.28571C3.57563 6.66667 3 6.06971 3 5.33333Z" fill="white"/>
<path fill-rule="evenodd" clip-rule="evenodd" d="M3 12C3 11.2636 3.57563 10.6667 4.28571 10.6667H19.7143C20.4244 10.6667 21 11.2636 21 12C21 12.7364 20.4244 13.3333 19.7143 13.3333H4.28571C3.57563 13.3333 3 12.7364 3 12Z" fill="white"/>
<path fill-rule="evenodd" clip-rule="evenodd" d="M3 18.6667C3 17.9303 3.57563 17.3333 4.28571 17.3333H19.7143C20.4244 17.3333 21 17.9303 21 18.6667C21 19.403 20.4244 20 19.7143 20H4.28571C3.57563 20 3 19.403 3 18.6667Z" fill="white"/>
</svg>
