<svg width="33" height="32" viewBox="0 0 33 32" fill="none" xmlns="http://www.w3.org/2000/svg">
<g clip-path="url(#clip0_420_1252)">
<path d="M16.5401 0.000116742C12.7347 -0.0146111 9.04918 1.36461 6.14649 3.88963C3.2438 6.41465 1.31454 9.91972 0.705811 13.7742C0.0970857 17.6287 0.848857 21.5796 2.82587 24.916C4.80288 28.2525 7.87535 30.7554 11.4905 31.9746C12.2895 32.1058 12.5452 31.5975 12.5452 31.1547V28.3836C8.11875 29.3675 7.17594 26.2356 7.17594 26.2356C6.87751 25.2172 6.23057 24.3437 5.35425 23.776C3.90008 22.7594 5.4661 22.7922 5.4661 22.7922C5.96771 22.8588 6.44816 23.0408 6.87153 23.3248C7.29491 23.6087 7.65026 23.9872 7.91101 24.4319C8.3549 25.2418 9.09243 25.8391 9.96323 26.094C10.834 26.3488 11.7677 26.2406 12.5611 25.7929C12.6339 24.9616 12.9905 24.1835 13.5679 23.5956C10.1482 23.2349 6.34499 21.8248 6.34499 15.5774C6.29877 13.9401 6.87136 12.3479 7.94297 11.1338C7.45645 9.72271 7.51361 8.17422 8.10277 6.80494C8.10277 6.80494 9.44507 6.36222 12.4972 8.44466C15.1141 7.72282 17.8703 7.72282 20.4871 8.44466C23.5393 6.32943 24.8816 6.80494 24.8816 6.80494C25.4707 8.17422 25.5279 9.72271 25.0414 11.1338C26.113 12.3479 26.6856 13.9401 26.6393 15.5774C26.6393 21.8412 22.9001 23.2185 19.3366 23.6284C19.7204 24.0243 20.0173 24.4997 20.2074 25.0229C20.3976 25.546 20.4766 26.1049 20.4392 26.6619V31.1547C20.4392 31.5975 20.6948 32.1222 21.5098 31.9746C25.1184 30.7576 28.1864 28.2613 30.1638 24.9335C32.1413 21.6056 32.8988 17.6638 32.3005 13.8148C31.7023 9.96575 29.7874 6.46127 26.8993 3.92968C24.0111 1.3981 20.3386 0.00497921 16.5401 0.000116742Z" fill="#7D7D7D"/>
</g>
<defs>
<clipPath id="clip0_420_1252">
<rect width="32" height="32" fill="white" transform="translate(0.5)"/>
</clipPath>
</defs>
</svg>
