<svg width="40" height="40" viewBox="0 0 32 32" fill="none" xmlns="http://www.w3.org/2000/svg">
<path d="M22.2108 12.3818C24.1305 13.5816 25.0902 14.1815 25.4194 14.9496C25.7069 15.6203 25.7069 16.3796 25.4194 17.0504C25.0902 17.8184 24.1305 18.4183 22.2108 19.6181L13.1945 25.2533C11.0639 26.5849 9.9986 27.2508 9.11948 27.18C8.35318 27.1184 7.65074 26.7292 7.19237 26.112C6.6665 25.404 6.6665 24.1477 6.6665 21.6352V10.3647C6.6665 7.85224 6.6665 6.596 7.19237 5.88796C7.65074 5.27078 8.35318 4.88146 9.11948 4.81985C9.9986 4.74918 11.0639 5.415 13.1945 6.74662L22.2108 12.3818Z" stroke="#fff" stroke-width="2" stroke-linejoin="round"/>
</svg>
