<svg width="32" height="32" viewBox="0 0 32 32" fill="none" xmlns="http://www.w3.org/2000/svg">
<path d="M13.75 21.25V13.75L12.25 15.1562" stroke="#fff" stroke-width="1.5" stroke-linecap="round" stroke-linejoin="round"/>
<path d="M16.75 20.7814C17.1417 21.0757 17.6286 21.25 18.1562 21.25C19.4507 21.25 20.5 20.2007 20.5 18.9062C20.5 17.6118 19.4507 16.5625 18.1562 16.5625C17.6286 16.5625 17.1417 16.7368 16.75 17.0311L17.2188 13.75H20.5" stroke="#fff" stroke-width="1.5" stroke-linecap="round" stroke-linejoin="round"/>
<path d="M8.83904 9.56521C4.59795 13.4941 4.36593 20.0946 8.32082 24.3078C12.2757 28.5211 18.9199 28.7516 23.161 24.8227C27.4021 20.8938 27.6341 14.2933 23.6792 10.08C21.4296 7.68354 18.31 6.5756 15.2574 6.78873M16.75 4.375L14.0757 6.9083L16.75 9.625" stroke="#fff" stroke-width="2" stroke-linecap="round" stroke-linejoin="round"/>
</svg>
