<svg width="33" height="32" viewBox="0 0 33 32" fill="none" xmlns="http://www.w3.org/2000/svg">
<path d="M14.25 21.25V13.75L12.75 15.1562" stroke="#fff" stroke-width="1.5" stroke-linecap="round" stroke-linejoin="round"/>
<path d="M17.25 20.7814C17.6417 21.0757 18.1286 21.25 18.6562 21.25C19.9507 21.25 21 20.2007 21 18.9062C21 17.6118 19.9507 16.5625 18.6562 16.5625C18.1286 16.5625 17.6417 16.7368 17.25 17.0311L17.7188 13.75H21" stroke="#fff" stroke-width="1.5" stroke-linecap="round" stroke-linejoin="round"/>
<path d="M23.661 9.56521C27.9021 13.4941 28.1341 20.0946 24.1792 24.3078C20.2243 28.5211 13.5801 28.7516 9.33904 24.8227C5.09795 20.8938 4.86593 14.2933 8.82082 10.08C11.0704 7.68354 14.19 6.5756 17.2426 6.78873M15.75 4.375L18.4243 6.9083L15.75 9.625" stroke="#fff" stroke-width="2" stroke-linecap="round" stroke-linejoin="round"/>
</svg>
