<svg width="30" height="30" viewBox="0 0 30 30" fill="none" xmlns="http://www.w3.org/2000/svg">
<g clip-path="url(#clip0_944_1838)">
<path d="M6.79182 15.148L26.9071 15.6548M6.62019 15.8822L4.28934 22.6702C3.72616 24.3105 3.44447 25.1307 3.6403 25.6309C3.81022 26.065 4.17563 26.3954 4.62374 26.5206C5.14007 26.6647 5.92526 26.3 7.49565 25.5708L24.4876 17.68C25.8559 17.0447 26.54 16.7269 26.7607 16.2773C26.9527 15.8861 26.9561 15.4259 26.7699 15.0253C26.5557 14.5648 25.8765 14.213 24.5179 13.5093L7.64672 4.77162C6.08755 3.96411 5.30795 3.56036 4.78969 3.67863C4.33993 3.78126 3.96993 4.09338 3.79381 4.51873C3.59081 5.00892 3.86035 5.84296 4.39963 7.51084L6.63083 14.413C6.71971 14.6879 6.76419 14.8253 6.78114 14.965C6.79625 15.0892 6.79534 15.2145 6.77843 15.3377C6.75946 15.4768 6.713 15.6119 6.62019 15.8822Z" stroke="white" stroke-width="2.1" stroke-linecap="round" stroke-linejoin="round"/>
</g>
<defs>
<clipPath id="clip0_944_1838">
<rect width="37" height="37" fill="white"/>
</clipPath>
</defs>
</svg>
