<svg width="32" height="32" viewBox="0 0 32 32" fill="none" xmlns="http://www.w3.org/2000/svg">
<path d="M14.049 2.92664C14.3483 2.00538 15.6517 2.00538 15.951 2.92664L18.368 10.3644C18.5019 10.7764 18.8858 11.0553 19.319 11.0553L27.1396 11.0556C28.1083 11.0556 28.5111 12.2952 27.7274 12.8646L21.4006 17.4617C21.0501 17.7163 20.9035 18.1676 21.0373 18.5796L23.4537 26.0176C23.753 26.9388 22.6986 27.7049 21.9149 27.1356L15.5878 22.539C15.2373 22.2844 14.7627 22.2844 14.4122 22.539L8.08508 27.1356C7.30138 27.7049 6.24695 26.9388 6.54626 26.0176L8.96267 18.5796C9.09652 18.1676 8.94988 17.7163 8.59942 17.4617L2.27261 12.8646C1.48894 12.2952 1.8917 11.0556 2.86038 11.0556L10.681 11.0553C11.1142 11.0553 11.4981 10.7764 11.632 10.3644L14.049 2.92664Z" stroke="white" stroke-width="2.5"/>
</svg>
