<svg width="28" height="26" viewBox="0 0 28 26" fill="none" xmlns="http://www.w3.org/2000/svg">
<path d="M13.049 0.926639C13.3483 0.0053765 14.6517 0.00537615 14.951 0.926639L17.368 8.36437C17.5019 8.77636 17.8858 9.0553 18.319 9.05532L26.1396 9.05561C27.1083 9.05565 27.5111 10.2952 26.7274 10.8646L20.4006 15.4617C20.0501 15.7163 19.9035 16.1676 20.0373 16.5796L22.4537 24.0176C22.753 24.9388 21.6986 25.7049 20.9149 25.1356L14.5878 20.539C14.2373 20.2844 13.7627 20.2844 13.4122 20.539L7.08508 25.1356C6.30138 25.7049 5.24695 24.9388 5.54626 24.0176L7.96267 16.5796C8.09652 16.1676 7.94988 15.7163 7.59942 15.4617L1.27261 10.8646C0.488945 10.2952 0.891698 9.05565 1.86038 9.05561L9.68097 9.05532C10.1142 9.0553 10.4981 8.77636 10.632 8.36437L13.049 0.926639Z" fill="white"/>
</svg>
