<svg width="33" height="32" viewBox="0 0 33 32" fill="none" xmlns="http://www.w3.org/2000/svg">
<g clip-path="url(#clip0_420_1257)">
<path d="M23.0413 9.57769C23.0477 9.57769 23.0562 9.57769 23.0647 9.57769C23.2867 9.57769 23.4928 9.64675 23.6618 9.76574L23.6586 9.76361C23.7818 9.87092 23.8647 10.0218 23.8849 10.1918V10.195C23.9061 10.3246 23.9178 10.4733 23.9178 10.6252C23.9178 10.6943 23.9157 10.7623 23.9104 10.8303V10.8207C23.6713 13.3376 22.6344 19.4412 22.1074 22.2587C21.8843 23.4518 21.4456 23.8513 21.0206 23.8895C20.0973 23.9756 19.3961 23.2797 18.5016 22.6932C17.1013 21.7742 16.3098 21.2027 14.951 20.307C13.3797 19.2733 14.3985 18.7028 15.2931 17.7742C15.5279 17.5299 19.598 13.8274 19.6777 13.4916C19.6819 13.4714 19.6841 13.4491 19.6841 13.4258C19.6841 13.3429 19.6533 13.2675 19.6033 13.2101C19.5481 13.174 19.479 13.1538 19.4068 13.1538C19.359 13.1538 19.3133 13.1633 19.2708 13.1793L19.2729 13.1782C19.1327 13.2101 16.8959 14.6883 12.5627 17.6127C12.0899 17.9857 11.4928 18.2215 10.8426 18.2491H10.8363C9.91514 18.1376 9.07902 17.9325 8.28539 17.6404L8.36401 17.6659C7.36746 17.3408 6.57596 17.1697 6.64396 16.6194C6.68008 16.3332 7.07459 16.0404 7.82749 15.7408C12.4653 13.7201 15.558 12.3881 17.1056 11.745C18.8129 10.8388 20.7922 10.093 22.8734 9.60956L23.0402 9.57663L23.0413 9.57769ZM16.4628 0C7.64263 0.0212483 0.5 7.17663 0.5 16C0.5 24.8361 7.66282 32 16.5 32C25.3372 32 32.5 24.8372 32.5 16C32.5 7.17663 25.3574 0.0212483 16.5393 0H16.5372C16.5124 0 16.4876 0 16.4628 0Z" fill="#7D7D7D"/>
</g>
<defs>
<clipPath id="clip0_420_1257">
<rect width="32" height="32" fill="white" transform="translate(0.5)"/>
</clipPath>
</defs>
</svg>
