<svg width="36" height="36" viewBox="0 0 40 40" fill="none" xmlns="http://www.w3.org/2000/svg">
<path d="M8.53506 29.6729C11.9211 27.759 15.833 26.6667 20 26.6667C24.167 26.6667 28.0789 27.759 31.4649 29.6729M25 16.6667C25 19.4281 22.7614 21.6667 20 21.6667C17.2386 21.6667 15 19.4281 15 16.6667C15 13.9052 17.2386 11.6667 20 11.6667C22.7614 11.6667 25 13.9052 25 16.6667ZM35 20C35 28.2843 28.2843 35 20 35C11.7157 35 5 28.2843 5 20C5 11.7157 11.7157 5 20 5C28.2843 5 35 11.7157 35 20Z" stroke="#fff" stroke-width="2" stroke-linecap="round" stroke-linejoin="round"/>
</svg>
