<svg width="33" height="32" viewBox="0 0 33 32" fill="none" xmlns="http://www.w3.org/2000/svg">
<g clip-path="url(#clip0_420_1255)">
<path d="M26.3339 22.8314H24.0089C23.1287 22.8314 22.8566 22.1314 21.2753 20.5288C19.8978 19.1951 19.2886 19.0158 18.9503 19.0158C18.4755 19.0158 18.34 19.1513 18.34 19.8065V21.9063C18.34 22.4718 18.1597 22.81 16.6691 22.81C13.6623 22.6084 11.0781 20.9684 9.57792 18.5784L9.55552 18.541C7.81419 16.3782 6.53061 13.7716 5.89575 10.9206L5.87228 10.7958C5.87228 10.4575 6.00779 10.1406 6.66292 10.1406H8.98788C9.57472 10.1406 9.80092 10.4117 10.0282 11.0433C11.1784 14.3638 13.099 17.2766 13.8896 17.2766C14.183 17.2766 14.3185 17.1411 14.3185 16.3964V12.9618C14.2279 11.3805 13.3924 11.246 13.3924 10.6816C13.402 10.3796 13.6495 10.1385 13.9526 10.1385C13.9622 10.1385 13.9707 10.1385 13.9803 10.1396H13.9792H17.6379C18.1352 10.1396 18.3155 10.4106 18.3155 10.9974V15.6282C18.3155 16.1243 18.5417 16.3057 18.6772 16.3057C18.9706 16.3057 19.2203 16.1243 19.7612 15.5833C20.8858 14.2101 21.8472 12.6395 22.5802 10.9462L22.6293 10.8182C22.784 10.4309 23.1553 10.162 23.5896 10.162C23.6099 10.162 23.6291 10.163 23.6493 10.1641H23.6461H25.9711C26.6711 10.1641 26.83 10.5237 26.6711 11.022C25.7385 13.0759 24.6907 14.8407 23.4765 16.4753L23.532 16.3964C23.2844 16.8029 23.1937 16.9832 23.532 17.4367C23.7795 17.7749 24.5936 18.4749 25.1357 19.1076C25.9199 19.8833 26.5772 20.786 27.0733 21.7825L27.1 21.8412C27.3262 22.4942 26.9869 22.8335 26.3317 22.8335L26.3339 22.8314ZM21.4119 0H11.5881C2.62224 0 0.5 2.12224 0.5 11.0881V20.9119C0.5 29.8778 2.62224 32 11.5881 32H21.4119C30.3778 32 32.5 29.8778 32.5 20.9119V11.0881C32.5 2.12224 30.3543 0 21.4119 0Z" fill="#7D7D7D"/>
</g>
<defs>
<clipPath id="clip0_420_1255">
<rect width="32" height="32" fill="white" transform="translate(0.5)"/>
</clipPath>
</defs>
</svg>
